M48
; DRILL file {KiCad 9.0.6} date 2026-01-12T10:04:15+0900
; FORMAT={-:-/ absolute / metric / decimal}
; #@! TF.CreationDate,2026-01-12T10:04:15+09:00
; #@! TF.GenerationSoftware,Kicad,Pcbnew,9.0.6
; #@! TF.FileFunction,Plated,1,2,PTH
FMAT,2
METRIC
; #@! TA.AperFunction,Plated,PTH,ViaDrill
T1C0.400
; #@! TA.AperFunction,Plated,PTH,ComponentDrill
T2C0.650
; #@! TA.AperFunction,Plated,PTH,ComponentDrill
T3C0.800
; #@! TA.AperFunction,Plated,PTH,ComponentDrill
T4C0.900
; #@! TA.AperFunction,Plated,PTH,ComponentDrill
T5C1.000
; #@! TA.AperFunction,Plated,PTH,ComponentDrill
T6C1.100
%
G90
G05
T1
X10.795Y-26.67
X12.065Y-24.765
X13.335Y-22.86
X17.78Y-44.53
X24.13Y-38.1
X25.4Y-38.1
X26.67Y-38.1
X27.94Y-45.68
X27.94Y-47.625
X29.21Y-22.86
X32.385Y-37.465
X32.385Y-38.735
X35.56Y-44.53
X36.83Y-36.195
X38.1Y-36.195
X40.64Y-52.07
X41.91Y-52.07
X43.18Y-52.07
X44.45Y-52.07
X45.72Y-45.68
X45.72Y-47.625
X48.26Y-34.29
X53.34Y-22.86
X53.34Y-44.53
X82.55Y-24.13
T2
X60.96Y-52.07
X62.23Y-38.735
X62.23Y-52.07
X63.5Y-38.735
T3
X5.08Y-53.34
X7.58Y-53.34
X7.62Y-63.5
X7.62Y-71.12
X8.89Y-38.1
X8.89Y-45.72
X10.16Y-63.5
X10.16Y-71.12
X10.16Y-81.28
X10.16Y-83.78
X13.97Y-43.18
X13.97Y-45.68
X15.24Y-7.62
X15.24Y-27.94
X15.24Y-63.5
X15.24Y-78.74
X17.78Y-7.62
X17.78Y-27.94
X17.78Y-63.5
X17.78Y-78.74
X20.32Y-7.62
X20.32Y-27.94
X20.32Y-63.5
X20.32Y-78.74
X22.86Y-7.62
X22.86Y-27.94
X22.86Y-63.5
X22.86Y-78.74
X25.4Y-7.62
X25.4Y-27.94
X25.4Y-63.5
X25.4Y-78.74
X27.94Y-7.62
X27.94Y-27.94
X27.94Y-63.5
X27.94Y-78.74
X30.48Y-7.62
X30.48Y-27.94
X30.48Y-63.5
X30.48Y-78.74
X31.75Y-43.18
X31.75Y-45.68
X33.02Y-7.62
X33.02Y-27.94
X33.02Y-63.5
X33.02Y-78.74
X35.56Y-7.62
X35.56Y-27.94
X35.56Y-63.5
X35.56Y-78.74
X38.1Y-7.62
X38.1Y-27.94
X38.1Y-63.5
X38.1Y-78.74
X40.64Y-7.62
X40.64Y-27.94
X40.64Y-63.5
X40.64Y-78.74
X43.18Y-7.62
X43.18Y-27.94
X43.18Y-63.5
X43.18Y-78.74
X45.72Y-7.62
X45.72Y-27.94
X45.72Y-63.5
X45.72Y-78.74
X48.26Y-7.62
X48.26Y-27.94
X48.26Y-63.5
X48.26Y-78.74
X49.53Y-43.18
X49.53Y-45.68
X50.8Y-7.62
X50.8Y-27.94
X50.8Y-63.5
X50.8Y-78.74
X53.34Y-7.62
X53.34Y-27.94
X53.34Y-63.5
X53.34Y-78.74
X55.88Y-7.62
X55.88Y-27.94
X55.88Y-63.5
X55.88Y-78.74
X58.42Y-7.62
X58.42Y-27.94
X58.42Y-63.5
X58.42Y-78.74
X60.96Y-7.62
X60.96Y-27.94
X60.96Y-63.5
X60.96Y-78.74
X63.5Y-7.62
X63.5Y-27.94
X63.5Y-63.5
X63.5Y-78.74
X71.12Y-66.04
X71.12Y-73.66
X73.66Y-66.04
X73.66Y-73.66
X73.74Y-63.5
X76.2Y-38.1
X76.2Y-40.64
X76.2Y-43.18
X76.2Y-45.72
X76.2Y-48.26
X76.2Y-50.8
X76.2Y-53.34
X76.2Y-66.04
X76.2Y-73.66
X78.74Y-63.5
X78.74Y-66.04
X78.74Y-73.66
X81.28Y-36.83
X81.28Y-54.61
X83.82Y-36.83
X83.82Y-54.61
X86.36Y-36.83
X86.36Y-54.61
X91.44Y-38.1
X91.44Y-40.64
X91.44Y-43.18
X91.44Y-45.72
X91.44Y-48.26
X91.44Y-50.8
X91.44Y-53.34
T4
X71.12Y-38.1
X71.12Y-40.64
X76.2Y-78.74
X76.2Y-81.28
X76.2Y-83.82
T5
X6.35Y-43.18
X6.35Y-45.72
X15.24Y-5.08
X15.24Y-30.48
X15.24Y-60.96
X15.24Y-81.28
X17.78Y-5.08
X17.78Y-30.48
X17.78Y-60.96
X17.78Y-81.28
X20.32Y-5.08
X20.32Y-30.48
X20.32Y-60.96
X20.32Y-81.28
X22.86Y-5.08
X22.86Y-30.48
X22.86Y-60.96
X22.86Y-81.28
X25.4Y-5.08
X25.4Y-30.48
X25.4Y-60.96
X25.4Y-81.28
X27.94Y-5.08
X27.94Y-30.48
X27.94Y-60.96
X27.94Y-81.28
X30.48Y-5.08
X30.48Y-30.48
X30.48Y-60.96
X30.48Y-81.28
X33.02Y-5.08
X33.02Y-30.48
X33.02Y-60.96
X33.02Y-81.28
X35.56Y-5.08
X35.56Y-30.48
X35.56Y-60.96
X35.56Y-81.28
X38.1Y-5.08
X38.1Y-30.48
X38.1Y-60.96
X38.1Y-81.28
X40.64Y-5.08
X40.64Y-30.48
X40.64Y-60.96
X40.64Y-81.28
X43.18Y-5.08
X43.18Y-30.48
X43.18Y-60.96
X43.18Y-81.28
X45.72Y-5.08
X45.72Y-30.48
X45.72Y-60.96
X45.72Y-81.28
X48.26Y-5.08
X48.26Y-30.48
X48.26Y-60.96
X48.26Y-81.28
X50.8Y-5.08
X50.8Y-30.48
X50.8Y-60.96
X50.8Y-81.28
X53.34Y-5.08
X53.34Y-30.48
X53.34Y-60.96
X53.34Y-81.28
X55.88Y-5.08
X55.88Y-30.48
X55.88Y-60.96
X55.88Y-81.28
X58.42Y-5.08
X58.42Y-30.48
X58.42Y-60.96
X58.42Y-81.28
X60.96Y-5.08
X60.96Y-30.48
X60.96Y-60.96
X60.96Y-81.28
X63.5Y-5.08
X63.5Y-30.48
X63.5Y-60.96
X63.5Y-81.28
X88.9Y-15.24
X88.9Y-17.78
X88.9Y-20.32
X88.9Y-22.86
X88.9Y-25.4
X88.9Y-27.94
T6
X84.94Y-66.04
X84.94Y-70.54
X84.94Y-78.74
X84.94Y-83.24
X91.44Y-66.04
X91.44Y-70.54
X91.44Y-78.74
X91.44Y-83.24
M30
