%TF.GenerationSoftware,KiCad,Pcbnew,9.0.6*%
%TF.CreationDate,2026-01-12T10:04:11+09:00*%
%TF.ProjectId,TangNano6100MEM,54616e67-4e61-46e6-9f36-3130304d454d,rev?*%
%TF.SameCoordinates,Original*%
%TF.FileFunction,Copper,L2,Bot*%
%TF.FilePolarity,Positive*%
%FSLAX46Y46*%
G04 Gerber Fmt 4.6, Leading zero omitted, Abs format (unit mm)*
G04 Created by KiCad (PCBNEW 9.0.6) date 2026-01-12 10:04:11*
%MOMM*%
%LPD*%
G01*
G04 APERTURE LIST*
%ADD10C,0.300000*%
%TA.AperFunction,NonConductor*%
%ADD11C,0.300000*%
%TD*%
%TA.AperFunction,ComponentPad*%
%ADD12C,1.600000*%
%TD*%
%TA.AperFunction,ComponentPad*%
%ADD13O,1.600000X1.600000*%
%TD*%
%TA.AperFunction,ComponentPad*%
%ADD14R,1.800000X1.800000*%
%TD*%
%TA.AperFunction,ComponentPad*%
%ADD15C,1.800000*%
%TD*%
%TA.AperFunction,ComponentPad*%
%ADD16R,1.700000X1.700000*%
%TD*%
%TA.AperFunction,ComponentPad*%
%ADD17O,1.700000X1.700000*%
%TD*%
%TA.AperFunction,ComponentPad*%
%ADD18R,1.600000X1.600000*%
%TD*%
%TA.AperFunction,ComponentPad*%
%ADD19C,2.000000*%
%TD*%
%TA.AperFunction,ComponentPad*%
%ADD20C,1.000000*%
%TD*%
%TA.AperFunction,ViaPad*%
%ADD21C,0.800000*%
%TD*%
%TA.AperFunction,Conductor*%
%ADD22C,1.000000*%
%TD*%
%TA.AperFunction,Conductor*%
%ADD23C,0.500000*%
%TD*%
%TA.AperFunction,Conductor*%
%ADD24C,2.000000*%
%TD*%
%TA.AperFunction,Conductor*%
%ADD25C,0.250000*%
%TD*%
%TA.AperFunction,Conductor*%
%ADD26C,1.500000*%
%TD*%
%TA.AperFunction,Conductor*%
%ADD27C,0.400000*%
%TD*%
G04 APERTURE END LIST*
D10*
D11*
X47436896Y-90241635D02*
X47436896Y-88641635D01*
X47436896Y-88641635D02*
X47055944Y-88641635D01*
X47055944Y-88641635D02*
X46827372Y-88717825D01*
X46827372Y-88717825D02*
X46674991Y-88870206D01*
X46674991Y-88870206D02*
X46598801Y-89022587D01*
X46598801Y-89022587D02*
X46522610Y-89327349D01*
X46522610Y-89327349D02*
X46522610Y-89555921D01*
X46522610Y-89555921D02*
X46598801Y-89860683D01*
X46598801Y-89860683D02*
X46674991Y-90013064D01*
X46674991Y-90013064D02*
X46827372Y-90165445D01*
X46827372Y-90165445D02*
X47055944Y-90241635D01*
X47055944Y-90241635D02*
X47436896Y-90241635D01*
X45227372Y-90165445D02*
X45379753Y-90241635D01*
X45379753Y-90241635D02*
X45684515Y-90241635D01*
X45684515Y-90241635D02*
X45836896Y-90165445D01*
X45836896Y-90165445D02*
X45913087Y-90013064D01*
X45913087Y-90013064D02*
X45913087Y-89403540D01*
X45913087Y-89403540D02*
X45836896Y-89251159D01*
X45836896Y-89251159D02*
X45684515Y-89174968D01*
X45684515Y-89174968D02*
X45379753Y-89174968D01*
X45379753Y-89174968D02*
X45227372Y-89251159D01*
X45227372Y-89251159D02*
X45151182Y-89403540D01*
X45151182Y-89403540D02*
X45151182Y-89555921D01*
X45151182Y-89555921D02*
X45913087Y-89708302D01*
X44541658Y-90165445D02*
X44389277Y-90241635D01*
X44389277Y-90241635D02*
X44084515Y-90241635D01*
X44084515Y-90241635D02*
X43932134Y-90165445D01*
X43932134Y-90165445D02*
X43855943Y-90013064D01*
X43855943Y-90013064D02*
X43855943Y-89936873D01*
X43855943Y-89936873D02*
X43932134Y-89784492D01*
X43932134Y-89784492D02*
X44084515Y-89708302D01*
X44084515Y-89708302D02*
X44313086Y-89708302D01*
X44313086Y-89708302D02*
X44465467Y-89632111D01*
X44465467Y-89632111D02*
X44541658Y-89479730D01*
X44541658Y-89479730D02*
X44541658Y-89403540D01*
X44541658Y-89403540D02*
X44465467Y-89251159D01*
X44465467Y-89251159D02*
X44313086Y-89174968D01*
X44313086Y-89174968D02*
X44084515Y-89174968D01*
X44084515Y-89174968D02*
X43932134Y-89251159D01*
X43170229Y-90241635D02*
X43170229Y-89174968D01*
X43170229Y-88641635D02*
X43246420Y-88717825D01*
X43246420Y-88717825D02*
X43170229Y-88794016D01*
X43170229Y-88794016D02*
X43094039Y-88717825D01*
X43094039Y-88717825D02*
X43170229Y-88641635D01*
X43170229Y-88641635D02*
X43170229Y-88794016D01*
X41722610Y-89174968D02*
X41722610Y-90470206D01*
X41722610Y-90470206D02*
X41798800Y-90622587D01*
X41798800Y-90622587D02*
X41874991Y-90698778D01*
X41874991Y-90698778D02*
X42027372Y-90774968D01*
X42027372Y-90774968D02*
X42255943Y-90774968D01*
X42255943Y-90774968D02*
X42408324Y-90698778D01*
X41722610Y-90165445D02*
X41874991Y-90241635D01*
X41874991Y-90241635D02*
X42179753Y-90241635D01*
X42179753Y-90241635D02*
X42332134Y-90165445D01*
X42332134Y-90165445D02*
X42408324Y-90089254D01*
X42408324Y-90089254D02*
X42484515Y-89936873D01*
X42484515Y-89936873D02*
X42484515Y-89479730D01*
X42484515Y-89479730D02*
X42408324Y-89327349D01*
X42408324Y-89327349D02*
X42332134Y-89251159D01*
X42332134Y-89251159D02*
X42179753Y-89174968D01*
X42179753Y-89174968D02*
X41874991Y-89174968D01*
X41874991Y-89174968D02*
X41722610Y-89251159D01*
X40960705Y-89174968D02*
X40960705Y-90241635D01*
X40960705Y-89327349D02*
X40884515Y-89251159D01*
X40884515Y-89251159D02*
X40732134Y-89174968D01*
X40732134Y-89174968D02*
X40503562Y-89174968D01*
X40503562Y-89174968D02*
X40351181Y-89251159D01*
X40351181Y-89251159D02*
X40274991Y-89403540D01*
X40274991Y-89403540D02*
X40274991Y-90241635D01*
X38903562Y-90165445D02*
X39055943Y-90241635D01*
X39055943Y-90241635D02*
X39360705Y-90241635D01*
X39360705Y-90241635D02*
X39513086Y-90165445D01*
X39513086Y-90165445D02*
X39589277Y-90013064D01*
X39589277Y-90013064D02*
X39589277Y-89403540D01*
X39589277Y-89403540D02*
X39513086Y-89251159D01*
X39513086Y-89251159D02*
X39360705Y-89174968D01*
X39360705Y-89174968D02*
X39055943Y-89174968D01*
X39055943Y-89174968D02*
X38903562Y-89251159D01*
X38903562Y-89251159D02*
X38827372Y-89403540D01*
X38827372Y-89403540D02*
X38827372Y-89555921D01*
X38827372Y-89555921D02*
X39589277Y-89708302D01*
X37455943Y-90241635D02*
X37455943Y-88641635D01*
X37455943Y-90165445D02*
X37608324Y-90241635D01*
X37608324Y-90241635D02*
X37913086Y-90241635D01*
X37913086Y-90241635D02*
X38065467Y-90165445D01*
X38065467Y-90165445D02*
X38141657Y-90089254D01*
X38141657Y-90089254D02*
X38217848Y-89936873D01*
X38217848Y-89936873D02*
X38217848Y-89479730D01*
X38217848Y-89479730D02*
X38141657Y-89327349D01*
X38141657Y-89327349D02*
X38065467Y-89251159D01*
X38065467Y-89251159D02*
X37913086Y-89174968D01*
X37913086Y-89174968D02*
X37608324Y-89174968D01*
X37608324Y-89174968D02*
X37455943Y-89251159D01*
X35474990Y-90241635D02*
X35474990Y-88641635D01*
X35474990Y-89251159D02*
X35322609Y-89174968D01*
X35322609Y-89174968D02*
X35017847Y-89174968D01*
X35017847Y-89174968D02*
X34865466Y-89251159D01*
X34865466Y-89251159D02*
X34789276Y-89327349D01*
X34789276Y-89327349D02*
X34713085Y-89479730D01*
X34713085Y-89479730D02*
X34713085Y-89936873D01*
X34713085Y-89936873D02*
X34789276Y-90089254D01*
X34789276Y-90089254D02*
X34865466Y-90165445D01*
X34865466Y-90165445D02*
X35017847Y-90241635D01*
X35017847Y-90241635D02*
X35322609Y-90241635D01*
X35322609Y-90241635D02*
X35474990Y-90165445D01*
X34179752Y-89174968D02*
X33798800Y-90241635D01*
X33417847Y-89174968D02*
X33798800Y-90241635D01*
X33798800Y-90241635D02*
X33951181Y-90622587D01*
X33951181Y-90622587D02*
X34027371Y-90698778D01*
X34027371Y-90698778D02*
X34179752Y-90774968D01*
X30674989Y-90241635D02*
X31208323Y-89479730D01*
X31589275Y-90241635D02*
X31589275Y-88641635D01*
X31589275Y-88641635D02*
X30979751Y-88641635D01*
X30979751Y-88641635D02*
X30827370Y-88717825D01*
X30827370Y-88717825D02*
X30751180Y-88794016D01*
X30751180Y-88794016D02*
X30674989Y-88946397D01*
X30674989Y-88946397D02*
X30674989Y-89174968D01*
X30674989Y-89174968D02*
X30751180Y-89327349D01*
X30751180Y-89327349D02*
X30827370Y-89403540D01*
X30827370Y-89403540D02*
X30979751Y-89479730D01*
X30979751Y-89479730D02*
X31589275Y-89479730D01*
X30141656Y-89174968D02*
X29760704Y-90241635D01*
X29379751Y-89174968D02*
X29760704Y-90241635D01*
X29760704Y-90241635D02*
X29913085Y-90622587D01*
X29913085Y-90622587D02*
X29989275Y-90698778D01*
X29989275Y-90698778D02*
X30141656Y-90774968D01*
X28541656Y-90241635D02*
X28694037Y-90165445D01*
X28694037Y-90165445D02*
X28770227Y-90089254D01*
X28770227Y-90089254D02*
X28846418Y-89936873D01*
X28846418Y-89936873D02*
X28846418Y-89479730D01*
X28846418Y-89479730D02*
X28770227Y-89327349D01*
X28770227Y-89327349D02*
X28694037Y-89251159D01*
X28694037Y-89251159D02*
X28541656Y-89174968D01*
X28541656Y-89174968D02*
X28313084Y-89174968D01*
X28313084Y-89174968D02*
X28160703Y-89251159D01*
X28160703Y-89251159D02*
X28084513Y-89327349D01*
X28084513Y-89327349D02*
X28008322Y-89479730D01*
X28008322Y-89479730D02*
X28008322Y-89936873D01*
X28008322Y-89936873D02*
X28084513Y-90089254D01*
X28084513Y-90089254D02*
X28160703Y-90165445D01*
X28160703Y-90165445D02*
X28313084Y-90241635D01*
X28313084Y-90241635D02*
X28541656Y-90241635D01*
X26103560Y-90241635D02*
X26103560Y-88641635D01*
X26103560Y-88641635D02*
X25570227Y-89784492D01*
X25570227Y-89784492D02*
X25036893Y-88641635D01*
X25036893Y-88641635D02*
X25036893Y-90241635D01*
X23589275Y-89174968D02*
X23589275Y-90241635D01*
X24274989Y-89174968D02*
X24274989Y-90013064D01*
X24274989Y-90013064D02*
X24198799Y-90165445D01*
X24198799Y-90165445D02*
X24046418Y-90241635D01*
X24046418Y-90241635D02*
X23817846Y-90241635D01*
X23817846Y-90241635D02*
X23665465Y-90165445D01*
X23665465Y-90165445D02*
X23589275Y-90089254D01*
X22827370Y-90241635D02*
X22827370Y-88641635D01*
X22674989Y-89632111D02*
X22217846Y-90241635D01*
X22217846Y-89174968D02*
X22827370Y-89784492D01*
X20846418Y-90241635D02*
X20846418Y-89403540D01*
X20846418Y-89403540D02*
X20922608Y-89251159D01*
X20922608Y-89251159D02*
X21074989Y-89174968D01*
X21074989Y-89174968D02*
X21379751Y-89174968D01*
X21379751Y-89174968D02*
X21532132Y-89251159D01*
X20846418Y-90165445D02*
X20998799Y-90241635D01*
X20998799Y-90241635D02*
X21379751Y-90241635D01*
X21379751Y-90241635D02*
X21532132Y-90165445D01*
X21532132Y-90165445D02*
X21608323Y-90013064D01*
X21608323Y-90013064D02*
X21608323Y-89860683D01*
X21608323Y-89860683D02*
X21532132Y-89708302D01*
X21532132Y-89708302D02*
X21379751Y-89632111D01*
X21379751Y-89632111D02*
X20998799Y-89632111D01*
X20998799Y-89632111D02*
X20846418Y-89555921D01*
X20084513Y-90241635D02*
X20084513Y-89174968D01*
X20084513Y-88641635D02*
X20160704Y-88717825D01*
X20160704Y-88717825D02*
X20084513Y-88794016D01*
X20084513Y-88794016D02*
X20008323Y-88717825D01*
X20008323Y-88717825D02*
X20084513Y-88641635D01*
X20084513Y-88641635D02*
X20084513Y-88794016D01*
X19246418Y-90165445D02*
X19246418Y-90241635D01*
X19246418Y-90241635D02*
X19322608Y-90394016D01*
X19322608Y-90394016D02*
X19398799Y-90470206D01*
X17417846Y-88794016D02*
X17341655Y-88717825D01*
X17341655Y-88717825D02*
X17189274Y-88641635D01*
X17189274Y-88641635D02*
X16808322Y-88641635D01*
X16808322Y-88641635D02*
X16655941Y-88717825D01*
X16655941Y-88717825D02*
X16579750Y-88794016D01*
X16579750Y-88794016D02*
X16503560Y-88946397D01*
X16503560Y-88946397D02*
X16503560Y-89098778D01*
X16503560Y-89098778D02*
X16579750Y-89327349D01*
X16579750Y-89327349D02*
X17494036Y-90241635D01*
X17494036Y-90241635D02*
X16503560Y-90241635D01*
X15513083Y-88641635D02*
X15360702Y-88641635D01*
X15360702Y-88641635D02*
X15208321Y-88717825D01*
X15208321Y-88717825D02*
X15132131Y-88794016D01*
X15132131Y-88794016D02*
X15055940Y-88946397D01*
X15055940Y-88946397D02*
X14979750Y-89251159D01*
X14979750Y-89251159D02*
X14979750Y-89632111D01*
X14979750Y-89632111D02*
X15055940Y-89936873D01*
X15055940Y-89936873D02*
X15132131Y-90089254D01*
X15132131Y-90089254D02*
X15208321Y-90165445D01*
X15208321Y-90165445D02*
X15360702Y-90241635D01*
X15360702Y-90241635D02*
X15513083Y-90241635D01*
X15513083Y-90241635D02*
X15665464Y-90165445D01*
X15665464Y-90165445D02*
X15741655Y-90089254D01*
X15741655Y-90089254D02*
X15817845Y-89936873D01*
X15817845Y-89936873D02*
X15894036Y-89632111D01*
X15894036Y-89632111D02*
X15894036Y-89251159D01*
X15894036Y-89251159D02*
X15817845Y-88946397D01*
X15817845Y-88946397D02*
X15741655Y-88794016D01*
X15741655Y-88794016D02*
X15665464Y-88717825D01*
X15665464Y-88717825D02*
X15513083Y-88641635D01*
X14370226Y-88794016D02*
X14294035Y-88717825D01*
X14294035Y-88717825D02*
X14141654Y-88641635D01*
X14141654Y-88641635D02*
X13760702Y-88641635D01*
X13760702Y-88641635D02*
X13608321Y-88717825D01*
X13608321Y-88717825D02*
X13532130Y-88794016D01*
X13532130Y-88794016D02*
X13455940Y-88946397D01*
X13455940Y-88946397D02*
X13455940Y-89098778D01*
X13455940Y-89098778D02*
X13532130Y-89327349D01*
X13532130Y-89327349D02*
X14446416Y-90241635D01*
X14446416Y-90241635D02*
X13455940Y-90241635D01*
X12084511Y-88641635D02*
X12389273Y-88641635D01*
X12389273Y-88641635D02*
X12541654Y-88717825D01*
X12541654Y-88717825D02*
X12617844Y-88794016D01*
X12617844Y-88794016D02*
X12770225Y-89022587D01*
X12770225Y-89022587D02*
X12846416Y-89327349D01*
X12846416Y-89327349D02*
X12846416Y-89936873D01*
X12846416Y-89936873D02*
X12770225Y-90089254D01*
X12770225Y-90089254D02*
X12694035Y-90165445D01*
X12694035Y-90165445D02*
X12541654Y-90241635D01*
X12541654Y-90241635D02*
X12236892Y-90241635D01*
X12236892Y-90241635D02*
X12084511Y-90165445D01*
X12084511Y-90165445D02*
X12008320Y-90089254D01*
X12008320Y-90089254D02*
X11932130Y-89936873D01*
X11932130Y-89936873D02*
X11932130Y-89555921D01*
X11932130Y-89555921D02*
X12008320Y-89403540D01*
X12008320Y-89403540D02*
X12084511Y-89327349D01*
X12084511Y-89327349D02*
X12236892Y-89251159D01*
X12236892Y-89251159D02*
X12541654Y-89251159D01*
X12541654Y-89251159D02*
X12694035Y-89327349D01*
X12694035Y-89327349D02*
X12770225Y-89403540D01*
X12770225Y-89403540D02*
X12846416Y-89555921D01*
X44770224Y-92817545D02*
X44770224Y-91217545D01*
X44084510Y-92817545D02*
X44084510Y-91979450D01*
X44084510Y-91979450D02*
X44160700Y-91827069D01*
X44160700Y-91827069D02*
X44313081Y-91750878D01*
X44313081Y-91750878D02*
X44541653Y-91750878D01*
X44541653Y-91750878D02*
X44694034Y-91827069D01*
X44694034Y-91827069D02*
X44770224Y-91903259D01*
X43551177Y-91750878D02*
X42941653Y-91750878D01*
X43322605Y-91217545D02*
X43322605Y-92588974D01*
X43322605Y-92588974D02*
X43246415Y-92741355D01*
X43246415Y-92741355D02*
X43094034Y-92817545D01*
X43094034Y-92817545D02*
X42941653Y-92817545D01*
X42636891Y-91750878D02*
X42027367Y-91750878D01*
X42408319Y-91217545D02*
X42408319Y-92588974D01*
X42408319Y-92588974D02*
X42332129Y-92741355D01*
X42332129Y-92741355D02*
X42179748Y-92817545D01*
X42179748Y-92817545D02*
X42027367Y-92817545D01*
X41494033Y-91750878D02*
X41494033Y-93350878D01*
X41494033Y-91827069D02*
X41341652Y-91750878D01*
X41341652Y-91750878D02*
X41036890Y-91750878D01*
X41036890Y-91750878D02*
X40884509Y-91827069D01*
X40884509Y-91827069D02*
X40808319Y-91903259D01*
X40808319Y-91903259D02*
X40732128Y-92055640D01*
X40732128Y-92055640D02*
X40732128Y-92512783D01*
X40732128Y-92512783D02*
X40808319Y-92665164D01*
X40808319Y-92665164D02*
X40884509Y-92741355D01*
X40884509Y-92741355D02*
X41036890Y-92817545D01*
X41036890Y-92817545D02*
X41341652Y-92817545D01*
X41341652Y-92817545D02*
X41494033Y-92741355D01*
X40122605Y-92741355D02*
X39970224Y-92817545D01*
X39970224Y-92817545D02*
X39665462Y-92817545D01*
X39665462Y-92817545D02*
X39513081Y-92741355D01*
X39513081Y-92741355D02*
X39436890Y-92588974D01*
X39436890Y-92588974D02*
X39436890Y-92512783D01*
X39436890Y-92512783D02*
X39513081Y-92360402D01*
X39513081Y-92360402D02*
X39665462Y-92284212D01*
X39665462Y-92284212D02*
X39894033Y-92284212D01*
X39894033Y-92284212D02*
X40046414Y-92208021D01*
X40046414Y-92208021D02*
X40122605Y-92055640D01*
X40122605Y-92055640D02*
X40122605Y-91979450D01*
X40122605Y-91979450D02*
X40046414Y-91827069D01*
X40046414Y-91827069D02*
X39894033Y-91750878D01*
X39894033Y-91750878D02*
X39665462Y-91750878D01*
X39665462Y-91750878D02*
X39513081Y-91827069D01*
X38751176Y-92665164D02*
X38674986Y-92741355D01*
X38674986Y-92741355D02*
X38751176Y-92817545D01*
X38751176Y-92817545D02*
X38827367Y-92741355D01*
X38827367Y-92741355D02*
X38751176Y-92665164D01*
X38751176Y-92665164D02*
X38751176Y-92817545D01*
X38751176Y-91827069D02*
X38674986Y-91903259D01*
X38674986Y-91903259D02*
X38751176Y-91979450D01*
X38751176Y-91979450D02*
X38827367Y-91903259D01*
X38827367Y-91903259D02*
X38751176Y-91827069D01*
X38751176Y-91827069D02*
X38751176Y-91979450D01*
X36846414Y-91141355D02*
X38217843Y-93198497D01*
X35170224Y-91141355D02*
X36541653Y-93198497D01*
X33951177Y-91750878D02*
X33951177Y-93046116D01*
X33951177Y-93046116D02*
X34027367Y-93198497D01*
X34027367Y-93198497D02*
X34103558Y-93274688D01*
X34103558Y-93274688D02*
X34255939Y-93350878D01*
X34255939Y-93350878D02*
X34484510Y-93350878D01*
X34484510Y-93350878D02*
X34636891Y-93274688D01*
X33951177Y-92741355D02*
X34103558Y-92817545D01*
X34103558Y-92817545D02*
X34408320Y-92817545D01*
X34408320Y-92817545D02*
X34560701Y-92741355D01*
X34560701Y-92741355D02*
X34636891Y-92665164D01*
X34636891Y-92665164D02*
X34713082Y-92512783D01*
X34713082Y-92512783D02*
X34713082Y-92055640D01*
X34713082Y-92055640D02*
X34636891Y-91903259D01*
X34636891Y-91903259D02*
X34560701Y-91827069D01*
X34560701Y-91827069D02*
X34408320Y-91750878D01*
X34408320Y-91750878D02*
X34103558Y-91750878D01*
X34103558Y-91750878D02*
X33951177Y-91827069D01*
X33189272Y-92817545D02*
X33189272Y-91750878D01*
X33189272Y-91217545D02*
X33265463Y-91293735D01*
X33265463Y-91293735D02*
X33189272Y-91369926D01*
X33189272Y-91369926D02*
X33113082Y-91293735D01*
X33113082Y-91293735D02*
X33189272Y-91217545D01*
X33189272Y-91217545D02*
X33189272Y-91369926D01*
X32655939Y-91750878D02*
X32046415Y-91750878D01*
X32427367Y-91217545D02*
X32427367Y-92588974D01*
X32427367Y-92588974D02*
X32351177Y-92741355D01*
X32351177Y-92741355D02*
X32198796Y-92817545D01*
X32198796Y-92817545D02*
X32046415Y-92817545D01*
X31513081Y-92817545D02*
X31513081Y-91217545D01*
X30827367Y-92817545D02*
X30827367Y-91979450D01*
X30827367Y-91979450D02*
X30903557Y-91827069D01*
X30903557Y-91827069D02*
X31055938Y-91750878D01*
X31055938Y-91750878D02*
X31284510Y-91750878D01*
X31284510Y-91750878D02*
X31436891Y-91827069D01*
X31436891Y-91827069D02*
X31513081Y-91903259D01*
X29379748Y-91750878D02*
X29379748Y-92817545D01*
X30065462Y-91750878D02*
X30065462Y-92588974D01*
X30065462Y-92588974D02*
X29989272Y-92741355D01*
X29989272Y-92741355D02*
X29836891Y-92817545D01*
X29836891Y-92817545D02*
X29608319Y-92817545D01*
X29608319Y-92817545D02*
X29455938Y-92741355D01*
X29455938Y-92741355D02*
X29379748Y-92665164D01*
X28617843Y-92817545D02*
X28617843Y-91217545D01*
X28617843Y-91827069D02*
X28465462Y-91750878D01*
X28465462Y-91750878D02*
X28160700Y-91750878D01*
X28160700Y-91750878D02*
X28008319Y-91827069D01*
X28008319Y-91827069D02*
X27932129Y-91903259D01*
X27932129Y-91903259D02*
X27855938Y-92055640D01*
X27855938Y-92055640D02*
X27855938Y-92512783D01*
X27855938Y-92512783D02*
X27932129Y-92665164D01*
X27932129Y-92665164D02*
X28008319Y-92741355D01*
X28008319Y-92741355D02*
X28160700Y-92817545D01*
X28160700Y-92817545D02*
X28465462Y-92817545D01*
X28465462Y-92817545D02*
X28617843Y-92741355D01*
X27170224Y-92665164D02*
X27094034Y-92741355D01*
X27094034Y-92741355D02*
X27170224Y-92817545D01*
X27170224Y-92817545D02*
X27246415Y-92741355D01*
X27246415Y-92741355D02*
X27170224Y-92665164D01*
X27170224Y-92665164D02*
X27170224Y-92817545D01*
X25722605Y-92741355D02*
X25874986Y-92817545D01*
X25874986Y-92817545D02*
X26179748Y-92817545D01*
X26179748Y-92817545D02*
X26332129Y-92741355D01*
X26332129Y-92741355D02*
X26408319Y-92665164D01*
X26408319Y-92665164D02*
X26484510Y-92512783D01*
X26484510Y-92512783D02*
X26484510Y-92055640D01*
X26484510Y-92055640D02*
X26408319Y-91903259D01*
X26408319Y-91903259D02*
X26332129Y-91827069D01*
X26332129Y-91827069D02*
X26179748Y-91750878D01*
X26179748Y-91750878D02*
X25874986Y-91750878D01*
X25874986Y-91750878D02*
X25722605Y-91827069D01*
X24808319Y-92817545D02*
X24960700Y-92741355D01*
X24960700Y-92741355D02*
X25036890Y-92665164D01*
X25036890Y-92665164D02*
X25113081Y-92512783D01*
X25113081Y-92512783D02*
X25113081Y-92055640D01*
X25113081Y-92055640D02*
X25036890Y-91903259D01*
X25036890Y-91903259D02*
X24960700Y-91827069D01*
X24960700Y-91827069D02*
X24808319Y-91750878D01*
X24808319Y-91750878D02*
X24579747Y-91750878D01*
X24579747Y-91750878D02*
X24427366Y-91827069D01*
X24427366Y-91827069D02*
X24351176Y-91903259D01*
X24351176Y-91903259D02*
X24274985Y-92055640D01*
X24274985Y-92055640D02*
X24274985Y-92512783D01*
X24274985Y-92512783D02*
X24351176Y-92665164D01*
X24351176Y-92665164D02*
X24427366Y-92741355D01*
X24427366Y-92741355D02*
X24579747Y-92817545D01*
X24579747Y-92817545D02*
X24808319Y-92817545D01*
X23589271Y-92817545D02*
X23589271Y-91750878D01*
X23589271Y-91903259D02*
X23513081Y-91827069D01*
X23513081Y-91827069D02*
X23360700Y-91750878D01*
X23360700Y-91750878D02*
X23132128Y-91750878D01*
X23132128Y-91750878D02*
X22979747Y-91827069D01*
X22979747Y-91827069D02*
X22903557Y-91979450D01*
X22903557Y-91979450D02*
X22903557Y-92817545D01*
X22903557Y-91979450D02*
X22827366Y-91827069D01*
X22827366Y-91827069D02*
X22674985Y-91750878D01*
X22674985Y-91750878D02*
X22446414Y-91750878D01*
X22446414Y-91750878D02*
X22294033Y-91827069D01*
X22294033Y-91827069D02*
X22217843Y-91979450D01*
X22217843Y-91979450D02*
X22217843Y-92817545D01*
X20313081Y-91141355D02*
X21684510Y-93198497D01*
X19779748Y-92817545D02*
X19779748Y-91750878D01*
X19779748Y-92055640D02*
X19703558Y-91903259D01*
X19703558Y-91903259D02*
X19627367Y-91827069D01*
X19627367Y-91827069D02*
X19474986Y-91750878D01*
X19474986Y-91750878D02*
X19322605Y-91750878D01*
X18941653Y-91750878D02*
X18560701Y-92817545D01*
X18179748Y-91750878D02*
X18560701Y-92817545D01*
X18560701Y-92817545D02*
X18713082Y-93198497D01*
X18713082Y-93198497D02*
X18789272Y-93274688D01*
X18789272Y-93274688D02*
X18941653Y-93350878D01*
X17341653Y-92817545D02*
X17494034Y-92741355D01*
X17494034Y-92741355D02*
X17570224Y-92665164D01*
X17570224Y-92665164D02*
X17646415Y-92512783D01*
X17646415Y-92512783D02*
X17646415Y-92055640D01*
X17646415Y-92055640D02*
X17570224Y-91903259D01*
X17570224Y-91903259D02*
X17494034Y-91827069D01*
X17494034Y-91827069D02*
X17341653Y-91750878D01*
X17341653Y-91750878D02*
X17113081Y-91750878D01*
X17113081Y-91750878D02*
X16960700Y-91827069D01*
X16960700Y-91827069D02*
X16884510Y-91903259D01*
X16884510Y-91903259D02*
X16808319Y-92055640D01*
X16808319Y-92055640D02*
X16808319Y-92512783D01*
X16808319Y-92512783D02*
X16884510Y-92665164D01*
X16884510Y-92665164D02*
X16960700Y-92741355D01*
X16960700Y-92741355D02*
X17113081Y-92817545D01*
X17113081Y-92817545D02*
X17341653Y-92817545D01*
X16122605Y-92817545D02*
X16122605Y-91750878D01*
X16122605Y-91903259D02*
X16046415Y-91827069D01*
X16046415Y-91827069D02*
X15894034Y-91750878D01*
X15894034Y-91750878D02*
X15665462Y-91750878D01*
X15665462Y-91750878D02*
X15513081Y-91827069D01*
X15513081Y-91827069D02*
X15436891Y-91979450D01*
X15436891Y-91979450D02*
X15436891Y-92817545D01*
X15436891Y-91979450D02*
X15360700Y-91827069D01*
X15360700Y-91827069D02*
X15208319Y-91750878D01*
X15208319Y-91750878D02*
X14979748Y-91750878D01*
X14979748Y-91750878D02*
X14827367Y-91827069D01*
X14827367Y-91827069D02*
X14751177Y-91979450D01*
X14751177Y-91979450D02*
X14751177Y-92817545D01*
X13303558Y-91750878D02*
X13303558Y-92817545D01*
X13989272Y-91750878D02*
X13989272Y-92588974D01*
X13989272Y-92588974D02*
X13913082Y-92741355D01*
X13913082Y-92741355D02*
X13760701Y-92817545D01*
X13760701Y-92817545D02*
X13532129Y-92817545D01*
X13532129Y-92817545D02*
X13379748Y-92741355D01*
X13379748Y-92741355D02*
X13303558Y-92665164D01*
X12541653Y-92817545D02*
X12541653Y-91217545D01*
X12389272Y-92208021D02*
X11932129Y-92817545D01*
X11932129Y-91750878D02*
X12541653Y-92360402D01*
D12*
%TO.P,R2,1*%
%TO.N,VCC*%
X10160000Y-63500000D03*
D13*
%TO.P,R2,2*%
%TO.N,C2_n*%
X10160000Y-71120000D03*
%TD*%
D14*
%TO.P,SW1,1,A*%
%TO.N,+3V3*%
X76200000Y-78740000D03*
D15*
%TO.P,SW1,2,B*%
%TO.N,HALT_SW*%
X76200000Y-81280000D03*
%TO.P,SW1,3,C*%
%TO.N,Net-(SW1-C)*%
X76200000Y-83820000D03*
%TD*%
D12*
%TO.P,R7,1*%
%TO.N,OE_n*%
X8890000Y-45720000D03*
D13*
%TO.P,R7,2*%
%TO.N,GND*%
X8890000Y-38100000D03*
%TD*%
D12*
%TO.P,C6,1*%
%TO.N,+3V3*%
X49530000Y-43180000D03*
%TO.P,C6,2*%
%TO.N,GND*%
X49530000Y-45680000D03*
%TD*%
%TO.P,R6,1*%
%TO.N,Net-(R6-Pad1)*%
X78740000Y-73660000D03*
D13*
%TO.P,R6,2*%
%TO.N,CPREQ_n*%
X78740000Y-66040000D03*
%TD*%
D12*
%TO.P,R1,1*%
%TO.N,VCC*%
X7620000Y-63500000D03*
D13*
%TO.P,R1,2*%
%TO.N,WAIT_n*%
X7620000Y-71120000D03*
%TD*%
D12*
%TO.P,C1,1*%
%TO.N,CPREQ_n*%
X78740000Y-63500000D03*
%TO.P,C1,2*%
%TO.N,GND*%
X73740000Y-63500000D03*
%TD*%
%TO.P,C4,1*%
%TO.N,+3V3*%
X13970000Y-43180000D03*
%TO.P,C4,2*%
%TO.N,GND*%
X13970000Y-45680000D03*
%TD*%
%TO.P,R3,1*%
%TO.N,Net-(LED1-A)*%
X71120000Y-66040000D03*
D13*
%TO.P,R3,2*%
%TO.N,RUN*%
X71120000Y-73660000D03*
%TD*%
D14*
%TO.P,LED1,1,K*%
%TO.N,GND*%
X71120000Y-38100000D03*
D15*
%TO.P,LED1,2,A*%
%TO.N,Net-(LED1-A)*%
X71120000Y-40640000D03*
%TD*%
D12*
%TO.P,R4,1*%
%TO.N,GND*%
X73660000Y-66040000D03*
D13*
%TO.P,R4,2*%
%TO.N,Net-(SW1-C)*%
X73660000Y-73660000D03*
%TD*%
D16*
%TO.P,J4,1,Pin_1*%
%TO.N,VCC*%
X15240000Y-81280000D03*
D17*
%TO.P,J4,2,Pin_2*%
%TO.N,RUN*%
X17780000Y-81280000D03*
%TO.P,J4,3,Pin_3*%
%TO.N,DMAGNT*%
X20320000Y-81280000D03*
%TO.P,J4,4,Pin_4*%
%TO.N,DMAREQ_n*%
X22860000Y-81280000D03*
%TO.P,J4,5,Pin_5*%
%TO.N,CPREQ_n*%
X25400000Y-81280000D03*
%TO.P,J4,6,Pin_6*%
%TO.N,RUN_HLT_n*%
X27940000Y-81280000D03*
%TO.P,J4,7,Pin_7*%
%TO.N,RESET_n*%
X30480000Y-81280000D03*
%TO.P,J4,8,Pin_8*%
%TO.N,INTREQ_n*%
X33020000Y-81280000D03*
%TO.P,J4,9,Pin_9*%
%TO.N,XTA*%
X35560000Y-81280000D03*
%TO.P,J4,10,Pin_10*%
%TO.N,LXMAR*%
X38100000Y-81280000D03*
%TO.P,J4,11,Pin_11*%
%TO.N,WAIT_n*%
X40640000Y-81280000D03*
%TO.P,J4,12,Pin_12*%
%TO.N,XTB*%
X43180000Y-81280000D03*
%TO.P,J4,13,Pin_13*%
%TO.N,XTC*%
X45720000Y-81280000D03*
%TO.P,J4,14,Pin_14*%
%TO.N,CLK*%
X48260000Y-81280000D03*
%TO.P,J4,15,Pin_15*%
%TO.N,GND*%
X50800000Y-81280000D03*
%TO.P,J4,16,Pin_16*%
%TO.N,DX0*%
X53340000Y-81280000D03*
%TO.P,J4,17,Pin_17*%
%TO.N,DX1*%
X55880000Y-81280000D03*
%TO.P,J4,18,Pin_18*%
%TO.N,DX2*%
X58420000Y-81280000D03*
%TO.P,J4,19,Pin_19*%
%TO.N,DX3*%
X60960000Y-81280000D03*
%TO.P,J4,20,Pin_20*%
%TO.N,DX4*%
X63500000Y-81280000D03*
%TD*%
D18*
%TO.P,J1,1,Pin_1*%
%TO.N,INTGNT_L*%
X15240000Y-27940000D03*
D13*
%TO.P,J1,2,Pin_2*%
%TO.N,CPSEL_n_L*%
X17780000Y-27940000D03*
%TO.P,J1,3,Pin_3*%
%TO.N,CONT_SW*%
X20320000Y-27940000D03*
%TO.P,J1,4,Pin_4*%
%TO.N,SWSEL_n_L*%
X22860000Y-27940000D03*
%TO.P,J1,5,Pin_5*%
%TO.N,MEMSEL_n_L*%
X25400000Y-27940000D03*
%TO.P,J1,6,Pin_6*%
%TO.N,DMAREQ_n*%
X27940000Y-27940000D03*
%TO.P,J1,7,Pin_7*%
%TO.N,RUN_HLT_n*%
X30480000Y-27940000D03*
%TO.P,J1,8,Pin_8*%
%TO.N,IFETCH_L*%
X33020000Y-27940000D03*
%TO.P,J1,9,Pin_9*%
%TO.N,XTA_L*%
X35560000Y-27940000D03*
%TO.P,J1,10,Pin_10*%
%TO.N,LXMAR_L*%
X38100000Y-27940000D03*
%TO.P,J1,11,Pin_11*%
%TO.N,HALT_SW*%
X40640000Y-27940000D03*
%TO.P,J1,12,Pin_12*%
%TO.N,XTC_L*%
X43180000Y-27940000D03*
%TO.P,J1,13,Pin_13*%
%TO.N,DEVSEL_n_L*%
X45720000Y-27940000D03*
%TO.P,J1,14,Pin_14*%
%TO.N,DBG_TX*%
X48260000Y-27940000D03*
%TO.P,J1,15,Pin_15*%
%TO.N,INTREQ_n*%
X50800000Y-27940000D03*
%TO.P,J1,16,Pin_16*%
%TO.N,SKP_n*%
X53340000Y-27940000D03*
%TO.P,J1,17,Pin_17*%
%TO.N,C1_n*%
X55880000Y-27940000D03*
%TO.P,J1,18,Pin_18*%
%TO.N,C0_n*%
X58420000Y-27940000D03*
%TO.P,J1,19,Pin_19*%
%TO.N,+3V3*%
X60960000Y-27940000D03*
%TO.P,J1,20,Pin_20*%
%TO.N,GND*%
X63500000Y-27940000D03*
%TO.P,J1,21,Pin_21*%
%TO.N,RESET_n*%
X63500000Y-7620000D03*
%TO.P,J1,22,Pin_22*%
%TO.N,CLK*%
X60960000Y-7620000D03*
%TO.P,J1,23,Pin_23*%
%TO.N,DX5_L*%
X58420000Y-7620000D03*
%TO.P,J1,24,Pin_24*%
%TO.N,DX4_L*%
X55880000Y-7620000D03*
%TO.P,J1,25,Pin_25*%
%TO.N,+3V3*%
X53340000Y-7620000D03*
%TO.P,J1,26,Pin_26*%
%TO.N,GND*%
X50800000Y-7620000D03*
%TO.P,J1,27,Pin_27*%
%TO.N,LED_RGB*%
X48260000Y-7620000D03*
%TO.P,J1,28,Pin_28*%
%TO.N,DX3_L*%
X45720000Y-7620000D03*
%TO.P,J1,29,Pin_29*%
%TO.N,DX2_L*%
X43180000Y-7620000D03*
%TO.P,J1,30,Pin_30*%
%TO.N,DX1_L*%
X40640000Y-7620000D03*
%TO.P,J1,31,Pin_31*%
%TO.N,DX0_L*%
X38100000Y-7620000D03*
%TO.P,J1,32,Pin_32*%
%TO.N,DX6_L*%
X35560000Y-7620000D03*
%TO.P,J1,33,Pin_33*%
%TO.N,DX7_L*%
X33020000Y-7620000D03*
%TO.P,J1,34,Pin_34*%
%TO.N,DX8_L*%
X30480000Y-7620000D03*
%TO.P,J1,35,Pin_35*%
%TO.N,DX9_L*%
X27940000Y-7620000D03*
%TO.P,J1,36,Pin_36*%
%TO.N,DX10_L*%
X25400000Y-7620000D03*
%TO.P,J1,37,Pin_37*%
%TO.N,DX11_L*%
X22860000Y-7620000D03*
%TO.P,J1,38,Pin_38*%
%TO.N,DATAF_L*%
X20320000Y-7620000D03*
%TO.P,J1,39,Pin_39*%
%TO.N,GND*%
X17780000Y-7620000D03*
%TO.P,J1,40,Pin_40*%
%TO.N,VCC*%
X15240000Y-7620000D03*
%TD*%
D16*
%TO.P,J6,1,Pin_1*%
%TO.N,+3V3*%
X6350000Y-43180000D03*
D17*
%TO.P,J6,2,Pin_2*%
%TO.N,OE_n*%
X6350000Y-45720000D03*
%TD*%
D16*
%TO.P,J7,1,Pin_1*%
%TO.N,GND*%
X88900000Y-15240000D03*
D17*
%TO.P,J7,2,Pin_2*%
%TO.N,unconnected-(J7-Pin_2-Pad2)*%
X88900000Y-17780000D03*
%TO.P,J7,3,Pin_3*%
%TO.N,unconnected-(J7-Pin_3-Pad3)*%
X88900000Y-20320000D03*
%TO.P,J7,4,Pin_4*%
%TO.N,unconnected-(J7-Pin_4-Pad4)*%
X88900000Y-22860000D03*
%TO.P,J7,5,Pin_5*%
%TO.N,DBG_TX*%
X88900000Y-25400000D03*
%TO.P,J7,6,Pin_6*%
%TO.N,unconnected-(J7-Pin_6-Pad6)*%
X88900000Y-27940000D03*
%TD*%
D19*
%TO.P,SW3,1,1*%
%TO.N,GND*%
X84940000Y-66040000D03*
X91440000Y-66040000D03*
%TO.P,SW3,2,2*%
%TO.N,Net-(R6-Pad1)*%
X84940000Y-70540000D03*
X91440000Y-70540000D03*
%TD*%
D16*
%TO.P,J3,1,Pin_1*%
%TO.N,VCC*%
X15240000Y-5080000D03*
D17*
%TO.P,J3,2,Pin_2*%
%TO.N,GND*%
X17780000Y-5080000D03*
%TO.P,J3,3,Pin_3*%
%TO.N,DATAF_L*%
X20320000Y-5080000D03*
%TO.P,J3,4,Pin_4*%
%TO.N,DX11_L*%
X22860000Y-5080000D03*
%TO.P,J3,5,Pin_5*%
%TO.N,DX10_L*%
X25400000Y-5080000D03*
%TO.P,J3,6,Pin_6*%
%TO.N,DX9_L*%
X27940000Y-5080000D03*
%TO.P,J3,7,Pin_7*%
%TO.N,DX8_L*%
X30480000Y-5080000D03*
%TO.P,J3,8,Pin_8*%
%TO.N,DX7_L*%
X33020000Y-5080000D03*
%TO.P,J3,9,Pin_9*%
%TO.N,DX6_L*%
X35560000Y-5080000D03*
%TO.P,J3,10,Pin_10*%
%TO.N,DX0_L*%
X38100000Y-5080000D03*
%TO.P,J3,11,Pin_11*%
%TO.N,DX1_L*%
X40640000Y-5080000D03*
%TO.P,J3,12,Pin_12*%
%TO.N,DX2_L*%
X43180000Y-5080000D03*
%TO.P,J3,13,Pin_13*%
%TO.N,DX3_L*%
X45720000Y-5080000D03*
%TO.P,J3,14,Pin_14*%
%TO.N,LED_RGB*%
X48260000Y-5080000D03*
%TO.P,J3,15,Pin_15*%
%TO.N,GND*%
X50800000Y-5080000D03*
%TO.P,J3,16,Pin_16*%
%TO.N,+3V3*%
X53340000Y-5080000D03*
%TO.P,J3,17,Pin_17*%
%TO.N,DX4_L*%
X55880000Y-5080000D03*
%TO.P,J3,18,Pin_18*%
%TO.N,DX5_L*%
X58420000Y-5080000D03*
%TO.P,J3,19,Pin_19*%
%TO.N,CLK*%
X60960000Y-5080000D03*
%TO.P,J3,20,Pin_20*%
%TO.N,RESET_n*%
X63500000Y-5080000D03*
%TD*%
D20*
%TO.P,E1,1,Pin_1*%
%TO.N,Net-(E1-Pin_1)*%
X60960000Y-52070000D03*
%TO.P,E1,2,Pin_2*%
%TO.N,Net-(E1-Pin_2)*%
X62230000Y-52070000D03*
%TD*%
D12*
%TO.P,C2,1*%
%TO.N,VCC*%
X10160000Y-81280000D03*
%TO.P,C2,2*%
%TO.N,GND*%
X10160000Y-83780000D03*
%TD*%
D18*
%TO.P,C3,1*%
%TO.N,VCC*%
X5080000Y-53340000D03*
D12*
%TO.P,C3,2*%
%TO.N,GND*%
X7580000Y-53340000D03*
%TD*%
D18*
%TO.P,U1,1,VCC*%
%TO.N,VCC*%
X15240000Y-78740000D03*
D13*
%TO.P,U1,2,RUN*%
%TO.N,RUN*%
X17780000Y-78740000D03*
%TO.P,U1,3,DMAGNT*%
%TO.N,DMAGNT*%
X20320000Y-78740000D03*
%TO.P,U1,4,~{DMAREQ}*%
%TO.N,DMAREQ_n*%
X22860000Y-78740000D03*
%TO.P,U1,5,~{CPREQ}*%
%TO.N,CPREQ_n*%
X25400000Y-78740000D03*
%TO.P,U1,6,RUN/~{HLT}*%
%TO.N,RUN_HLT_n*%
X27940000Y-78740000D03*
%TO.P,U1,7,~{RESET}*%
%TO.N,RESET_n*%
X30480000Y-78740000D03*
%TO.P,U1,8,~{INTREQ}*%
%TO.N,INTREQ_n*%
X33020000Y-78740000D03*
%TO.P,U1,9,XTA*%
%TO.N,XTA*%
X35560000Y-78740000D03*
%TO.P,U1,10,LXMAR*%
%TO.N,LXMAR*%
X38100000Y-78740000D03*
%TO.P,U1,11,~{WAIT}*%
%TO.N,WAIT_n*%
X40640000Y-78740000D03*
%TO.P,U1,12,XTB*%
%TO.N,XTB*%
X43180000Y-78740000D03*
%TO.P,U1,13,XTC*%
%TO.N,XTC*%
X45720000Y-78740000D03*
%TO.P,U1,14,OSC_OUT*%
%TO.N,CLK*%
X48260000Y-78740000D03*
%TO.P,U1,15,OSC_IN*%
%TO.N,GND*%
X50800000Y-78740000D03*
%TO.P,U1,16,DX0*%
%TO.N,DX0*%
X53340000Y-78740000D03*
%TO.P,U1,17,DX1*%
%TO.N,DX1*%
X55880000Y-78740000D03*
%TO.P,U1,18,DX2*%
%TO.N,DX2*%
X58420000Y-78740000D03*
%TO.P,U1,19,DX3*%
%TO.N,DX3*%
X60960000Y-78740000D03*
%TO.P,U1,20,DX4*%
%TO.N,DX4*%
X63500000Y-78740000D03*
%TO.P,U1,21,DX5*%
%TO.N,DX5*%
X63500000Y-63500000D03*
%TO.P,U1,22,DX6*%
%TO.N,DX6*%
X60960000Y-63500000D03*
%TO.P,U1,23,DX7*%
%TO.N,DX7*%
X58420000Y-63500000D03*
%TO.P,U1,24,DX8*%
%TO.N,DX8*%
X55880000Y-63500000D03*
%TO.P,U1,25,DX9*%
%TO.N,DX9*%
X53340000Y-63500000D03*
%TO.P,U1,26,GND*%
%TO.N,GND*%
X50800000Y-63500000D03*
%TO.P,U1,27,DX10*%
%TO.N,DX10*%
X48260000Y-63500000D03*
%TO.P,U1,28,DX11*%
%TO.N,DX11*%
X45720000Y-63500000D03*
%TO.P,U1,29,LINK*%
%TO.N,LINK*%
X43180000Y-63500000D03*
%TO.P,U1,30,~{DEVSEL}*%
%TO.N,DEVSEL_n*%
X40640000Y-63500000D03*
%TO.P,U1,31,~{SWSEL}*%
%TO.N,SWSEL_n*%
X38100000Y-63500000D03*
%TO.P,U1,32,~{C0}*%
%TO.N,C0_n*%
X35560000Y-63500000D03*
%TO.P,U1,33,~{C1}*%
%TO.N,C1_n*%
X33020000Y-63500000D03*
%TO.P,U1,34,~{C2}*%
%TO.N,C2_n*%
X30480000Y-63500000D03*
%TO.P,U1,35,~{SKP}*%
%TO.N,SKP_n*%
X27940000Y-63500000D03*
%TO.P,U1,36,IFETCH*%
%TO.N,IFETCH*%
X25400000Y-63500000D03*
%TO.P,U1,37,~{MEMSEL}*%
%TO.N,MEMSEL_n*%
X22860000Y-63500000D03*
%TO.P,U1,38,~{CPSEL}*%
%TO.N,CPSEL_n*%
X20320000Y-63500000D03*
%TO.P,U1,39,INTGNT*%
%TO.N,INTGNT*%
X17780000Y-63500000D03*
%TO.P,U1,40,DATAF*%
%TO.N,DATAF*%
X15240000Y-63500000D03*
%TD*%
D12*
%TO.P,R5,1*%
%TO.N,CPREQ_n*%
X76200000Y-66040000D03*
D13*
%TO.P,R5,2*%
%TO.N,VCC*%
X76200000Y-73660000D03*
%TD*%
D19*
%TO.P,SW2,1,1*%
%TO.N,+3V3*%
X84940000Y-78740000D03*
X91440000Y-78740000D03*
%TO.P,SW2,2,2*%
%TO.N,CONT_SW*%
X84940000Y-83240000D03*
X91440000Y-83240000D03*
%TD*%
D16*
%TO.P,J2,1,Pin_1*%
%TO.N,INTGNT_L*%
X15240000Y-30480000D03*
D17*
%TO.P,J2,2,Pin_2*%
%TO.N,CPSEL_n_L*%
X17780000Y-30480000D03*
%TO.P,J2,3,Pin_3*%
%TO.N,CONT_SW*%
X20320000Y-30480000D03*
%TO.P,J2,4,Pin_4*%
%TO.N,SWSEL_n_L*%
X22860000Y-30480000D03*
%TO.P,J2,5,Pin_5*%
%TO.N,MEMSEL_n_L*%
X25400000Y-30480000D03*
%TO.P,J2,6,Pin_6*%
%TO.N,DMAREQ_n*%
X27940000Y-30480000D03*
%TO.P,J2,7,Pin_7*%
%TO.N,RUN_HLT_n*%
X30480000Y-30480000D03*
%TO.P,J2,8,Pin_8*%
%TO.N,IFETCH_L*%
X33020000Y-30480000D03*
%TO.P,J2,9,Pin_9*%
%TO.N,XTA_L*%
X35560000Y-30480000D03*
%TO.P,J2,10,Pin_10*%
%TO.N,LXMAR_L*%
X38100000Y-30480000D03*
%TO.P,J2,11,Pin_11*%
%TO.N,HALT_SW*%
X40640000Y-30480000D03*
%TO.P,J2,12,Pin_12*%
%TO.N,XTC_L*%
X43180000Y-30480000D03*
%TO.P,J2,13,Pin_13*%
%TO.N,DEVSEL_n_L*%
X45720000Y-30480000D03*
%TO.P,J2,14,Pin_14*%
%TO.N,DBG_TX*%
X48260000Y-30480000D03*
%TO.P,J2,15,Pin_15*%
%TO.N,INTREQ_n*%
X50800000Y-30480000D03*
%TO.P,J2,16,Pin_16*%
%TO.N,SKP_n*%
X53340000Y-30480000D03*
%TO.P,J2,17,Pin_17*%
%TO.N,C1_n*%
X55880000Y-30480000D03*
%TO.P,J2,18,Pin_18*%
%TO.N,C0_n*%
X58420000Y-30480000D03*
%TO.P,J2,19,Pin_19*%
%TO.N,+3V3*%
X60960000Y-30480000D03*
%TO.P,J2,20,Pin_20*%
%TO.N,GND*%
X63500000Y-30480000D03*
%TD*%
D20*
%TO.P,E2,1,Pin_1*%
%TO.N,Net-(E2-Pin_1)*%
X62230000Y-38735000D03*
%TO.P,E2,2,Pin_2*%
%TO.N,Net-(E2-Pin_2)*%
X63500000Y-38735000D03*
%TD*%
D12*
%TO.P,C5,1*%
%TO.N,+3V3*%
X31750000Y-43180000D03*
%TO.P,C5,2*%
%TO.N,GND*%
X31750000Y-45680000D03*
%TD*%
D18*
%TO.P,U5,1,5V*%
%TO.N,VCC*%
X76200000Y-38100000D03*
D13*
X86360000Y-36830000D03*
X86360000Y-54610000D03*
%TO.P,U5,2,GND*%
%TO.N,GND*%
X76200000Y-40640000D03*
X83820000Y-36830000D03*
X83820000Y-54610000D03*
%TO.P,U5,3,3V3*%
%TO.N,unconnected-(U5-3V3-Pad3)*%
X76200000Y-43180000D03*
%TO.P,U5,4,D10*%
%TO.N,unconnected-(U5-D10-Pad4)*%
X76200000Y-45720000D03*
%TO.P,U5,5,D9*%
%TO.N,unconnected-(U5-D9-Pad5)*%
X76200000Y-48260000D03*
%TO.P,U5,6,D8*%
%TO.N,unconnected-(U5-D8-Pad6)*%
X76200000Y-50800000D03*
%TO.P,U5,7,D7*%
%TO.N,unconnected-(U5-D7-Pad7)*%
X76200000Y-53340000D03*
%TO.P,U5,8,D6*%
%TO.N,unconnected-(U5-D6-Pad8)*%
X91440000Y-53340000D03*
%TO.P,U5,9,D5*%
%TO.N,unconnected-(U5-D5-Pad9)*%
X91440000Y-50800000D03*
%TO.P,U5,10,D4*%
%TO.N,unconnected-(U5-D4-Pad10)*%
X91440000Y-48260000D03*
%TO.P,U5,11,D3*%
%TO.N,unconnected-(U5-D3-Pad11)*%
X91440000Y-45720000D03*
%TO.P,U5,12,D2*%
%TO.N,unconnected-(U5-D2-Pad12)*%
X91440000Y-43180000D03*
%TO.P,U5,13,D1*%
%TO.N,unconnected-(U5-D1-Pad13)*%
X91440000Y-40640000D03*
%TO.P,U5,14,IN*%
%TO.N,LED_RGB*%
X81280000Y-36830000D03*
X91440000Y-38100000D03*
%TO.P,U5,15,OUT*%
%TO.N,unconnected-(U5-OUT-Pad15)*%
X81280000Y-54610000D03*
%TD*%
D16*
%TO.P,J5,1,Pin_1*%
%TO.N,DATAF*%
X15240000Y-60960000D03*
D17*
%TO.P,J5,2,Pin_2*%
%TO.N,INTGNT*%
X17780000Y-60960000D03*
%TO.P,J5,3,Pin_3*%
%TO.N,CPSEL_n*%
X20320000Y-60960000D03*
%TO.P,J5,4,Pin_4*%
%TO.N,MEMSEL_n*%
X22860000Y-60960000D03*
%TO.P,J5,5,Pin_5*%
%TO.N,IFETCH*%
X25400000Y-60960000D03*
%TO.P,J5,6,Pin_6*%
%TO.N,SKP_n*%
X27940000Y-60960000D03*
%TO.P,J5,7,Pin_7*%
%TO.N,C2_n*%
X30480000Y-60960000D03*
%TO.P,J5,8,Pin_8*%
%TO.N,C1_n*%
X33020000Y-60960000D03*
%TO.P,J5,9,Pin_9*%
%TO.N,C0_n*%
X35560000Y-60960000D03*
%TO.P,J5,10,Pin_10*%
%TO.N,SWSEL_n*%
X38100000Y-60960000D03*
%TO.P,J5,11,Pin_11*%
%TO.N,DEVSEL_n*%
X40640000Y-60960000D03*
%TO.P,J5,12,Pin_12*%
%TO.N,LINK*%
X43180000Y-60960000D03*
%TO.P,J5,13,Pin_13*%
%TO.N,DX11*%
X45720000Y-60960000D03*
%TO.P,J5,14,Pin_14*%
%TO.N,DX10*%
X48260000Y-60960000D03*
%TO.P,J5,15,Pin_15*%
%TO.N,GND*%
X50800000Y-60960000D03*
%TO.P,J5,16,Pin_16*%
%TO.N,DX9*%
X53340000Y-60960000D03*
%TO.P,J5,17,Pin_17*%
%TO.N,DX8*%
X55880000Y-60960000D03*
%TO.P,J5,18,Pin_18*%
%TO.N,DX7*%
X58420000Y-60960000D03*
%TO.P,J5,19,Pin_19*%
%TO.N,DX6*%
X60960000Y-60960000D03*
%TO.P,J5,20,Pin_20*%
%TO.N,DX5*%
X63500000Y-60960000D03*
%TD*%
D21*
%TO.N,GND*%
X45720000Y-45680000D03*
X45720000Y-47625000D03*
X27940000Y-47625000D03*
X27940000Y-45680000D03*
%TO.N,DEVSEL_n_L*%
X38100000Y-36195000D03*
%TO.N,IFETCH_L*%
X24130000Y-38100000D03*
%TO.N,XTC_L*%
X36830000Y-36195000D03*
%TO.N,C0_n*%
X32385000Y-38735000D03*
%TO.N,DMAREQ_n*%
X12065000Y-24765000D03*
%TO.N,C1_n*%
X32385000Y-37465000D03*
%TO.N,LXMAR_L*%
X26670000Y-38100000D03*
%TO.N,XTA_L*%
X25400000Y-38100000D03*
%TO.N,SKP_n*%
X53340000Y-22860000D03*
X29210000Y-22860000D03*
%TO.N,INTREQ_n*%
X48260000Y-34290000D03*
%TO.N,RUN_HLT_n*%
X13335000Y-22860000D03*
%TO.N,DX9*%
X40640000Y-52070000D03*
%TO.N,DX8*%
X41910000Y-52070000D03*
%TO.N,DX6*%
X44450000Y-52070000D03*
%TO.N,DX7*%
X43180000Y-52070000D03*
%TO.N,OE_n*%
X35560000Y-44530000D03*
X17780000Y-44530000D03*
X53340000Y-44530000D03*
%TO.N,HALT_SW*%
X82550000Y-24130000D03*
%TO.N,CONT_SW*%
X10795000Y-26670000D03*
%TD*%
D22*
%TO.N,GND*%
X10160000Y-83780000D02*
X48300000Y-83780000D01*
X27940000Y-45680000D02*
X31750000Y-45680000D01*
X13970000Y-45680000D02*
X27940000Y-45680000D01*
X92379000Y-85421000D02*
X93345000Y-84455000D01*
X65405000Y-32385000D02*
X63500000Y-30480000D01*
X48300000Y-83780000D02*
X50800000Y-81280000D01*
X90170000Y-30480000D02*
X69850000Y-30480000D01*
X31750000Y-45680000D02*
X45720000Y-45680000D01*
X90451000Y-30199000D02*
X90170000Y-30480000D01*
X63500000Y-30480000D02*
X69850000Y-30480000D01*
X45720000Y-45680000D02*
X49530000Y-45680000D01*
X91440000Y-66040000D02*
X84940000Y-66040000D01*
X90451000Y-16791000D02*
X90451000Y-30199000D01*
X7580000Y-53340000D02*
X7580000Y-52070000D01*
X65405000Y-44450000D02*
X65405000Y-32385000D01*
D23*
X45720000Y-47625000D02*
X45720000Y-45680000D01*
D22*
X71120000Y-31750000D02*
X71120000Y-38100000D01*
X93345000Y-67945000D02*
X91440000Y-66040000D01*
X7580000Y-52070000D02*
X13970000Y-45680000D01*
X88900000Y-15240000D02*
X90451000Y-16791000D01*
X54941000Y-85421000D02*
X92379000Y-85421000D01*
X49530000Y-45680000D02*
X64175000Y-45680000D01*
X69850000Y-30480000D02*
X71120000Y-31750000D01*
X93345000Y-84455000D02*
X93345000Y-67945000D01*
X64175000Y-45680000D02*
X65405000Y-44450000D01*
X50800000Y-81280000D02*
X54941000Y-85421000D01*
D23*
X27940000Y-47625000D02*
X27940000Y-45680000D01*
D24*
%TO.N,VCC*%
X12700000Y-7620000D02*
X2540000Y-17780000D01*
X2540000Y-50800000D02*
X5080000Y-53340000D01*
X15240000Y-7620000D02*
X12700000Y-7620000D01*
D22*
X76200000Y-38100000D02*
X76431000Y-38331000D01*
D24*
X15240000Y-3810000D02*
X15240000Y-5080000D01*
X93441000Y-15553753D02*
X80371248Y-2484000D01*
X86360000Y-54610000D02*
X87630000Y-55880000D01*
X15240000Y-7620000D02*
X15240000Y-5080000D01*
X87630000Y-55880000D02*
X91729842Y-55880000D01*
X91729842Y-55880000D02*
X93441000Y-54168842D01*
X5080000Y-66040000D02*
X5080000Y-76200000D01*
X2540000Y-17780000D02*
X2540000Y-50800000D01*
X93441000Y-54168842D02*
X93441000Y-15553753D01*
X7620000Y-63500000D02*
X10160000Y-63500000D01*
D22*
X76431000Y-38331000D02*
X84859000Y-38331000D01*
D24*
X5080000Y-53340000D02*
X5080000Y-60960000D01*
X15240000Y-81280000D02*
X15240000Y-78740000D01*
X5080000Y-60960000D02*
X7620000Y-63500000D01*
X16566000Y-2484000D02*
X15240000Y-3810000D01*
X5080000Y-76200000D02*
X10160000Y-81280000D01*
X80371248Y-2484000D02*
X16566000Y-2484000D01*
X7620000Y-63500000D02*
X5080000Y-66040000D01*
D22*
X86360000Y-36830000D02*
X86360000Y-54610000D01*
X84859000Y-38331000D02*
X86360000Y-36830000D01*
D24*
X10160000Y-81280000D02*
X15240000Y-81280000D01*
D25*
%TO.N,CPREQ_n*%
X69215000Y-67310000D02*
X74930000Y-67310000D01*
X26035000Y-76835000D02*
X66675000Y-76835000D01*
X74930000Y-67310000D02*
X76200000Y-66040000D01*
X78740000Y-66040000D02*
X76200000Y-66040000D01*
X67945000Y-68580000D02*
X69215000Y-67310000D01*
X66675000Y-76835000D02*
X67945000Y-75565000D01*
X67945000Y-75565000D02*
X67945000Y-68580000D01*
X25400000Y-78740000D02*
X25400000Y-77470000D01*
X25400000Y-77470000D02*
X26035000Y-76835000D01*
%TO.N,DEVSEL_n_L*%
X45085000Y-33020000D02*
X45720000Y-32385000D01*
X45720000Y-32385000D02*
X45720000Y-30480000D01*
X41275000Y-33020000D02*
X45085000Y-33020000D01*
X38100000Y-36195000D02*
X41275000Y-33020000D01*
%TO.N,IFETCH_L*%
X28575000Y-33655000D02*
X32385000Y-33655000D01*
X32385000Y-33655000D02*
X33020000Y-33020000D01*
X24130000Y-38100000D02*
X28575000Y-33655000D01*
X33020000Y-33020000D02*
X33020000Y-30480000D01*
%TO.N,DBG_TX*%
X48895000Y-25400000D02*
X48260000Y-26035000D01*
X48260000Y-26035000D02*
X48260000Y-27940000D01*
X48895000Y-25400000D02*
X88900000Y-25400000D01*
%TO.N,XTC_L*%
X40640000Y-32385000D02*
X42545000Y-32385000D01*
X43180000Y-31750000D02*
X43180000Y-30480000D01*
X36830000Y-36195000D02*
X40640000Y-32385000D01*
X42545000Y-32385000D02*
X43180000Y-31750000D01*
D26*
%TO.N,+3V3*%
X50800000Y-43180000D02*
X60960000Y-33020000D01*
D27*
X76200000Y-78740000D02*
X84940000Y-78740000D01*
D26*
X49530000Y-43180000D02*
X50800000Y-43180000D01*
X60960000Y-33020000D02*
X60960000Y-30480000D01*
D22*
X6350000Y-43180000D02*
X49530000Y-43180000D01*
D26*
X12809565Y-10269565D02*
X50690435Y-10269565D01*
D25*
X84940000Y-78740000D02*
X91440000Y-78740000D01*
D26*
X6350000Y-16729130D02*
X12809565Y-10269565D01*
D22*
X6350000Y-43180000D02*
X6350000Y-16729130D01*
D26*
X50690435Y-10269565D02*
X53340000Y-7620000D01*
D25*
%TO.N,C0_n*%
X53340000Y-38735000D02*
X58420000Y-33655000D01*
X58420000Y-33655000D02*
X58420000Y-30480000D01*
X32385000Y-38735000D02*
X53340000Y-38735000D01*
%TO.N,DMAREQ_n*%
X12065000Y-24765000D02*
X24765000Y-24765000D01*
X27940000Y-27940000D02*
X24765000Y-24765000D01*
%TO.N,C1_n*%
X32385000Y-37465000D02*
X52705000Y-37465000D01*
X52705000Y-37465000D02*
X55880000Y-34290000D01*
X55880000Y-34290000D02*
X55880000Y-30480000D01*
%TO.N,LXMAR_L*%
X38100000Y-32385000D02*
X38100000Y-30480000D01*
X29845000Y-34925000D02*
X35560000Y-34925000D01*
X35560000Y-34925000D02*
X38100000Y-32385000D01*
X26670000Y-38100000D02*
X29845000Y-34925000D01*
%TO.N,XTA_L*%
X35560000Y-32385000D02*
X35560000Y-30480000D01*
X25400000Y-38100000D02*
X29210000Y-34290000D01*
X33655000Y-34290000D02*
X35560000Y-32385000D01*
X29210000Y-34290000D02*
X33655000Y-34290000D01*
%TO.N,SKP_n*%
X29210000Y-22860000D02*
X53340000Y-22860000D01*
%TO.N,INTREQ_n*%
X50800000Y-30480000D02*
X48260000Y-33020000D01*
X48260000Y-33020000D02*
X48260000Y-34290000D01*
%TO.N,RUN_HLT_n*%
X13335000Y-22860000D02*
X26531370Y-22860000D01*
X30480000Y-26808630D02*
X26531370Y-22860000D01*
X30480000Y-27940000D02*
X30480000Y-26808630D01*
%TO.N,LED_RGB*%
X89044000Y-35704000D02*
X82406000Y-35704000D01*
X79822000Y-3810000D02*
X49530000Y-3810000D01*
X82406000Y-35704000D02*
X81280000Y-36830000D01*
X91440000Y-15428000D02*
X79822000Y-3810000D01*
X91440000Y-38100000D02*
X89044000Y-35704000D01*
X49530000Y-3810000D02*
X48260000Y-5080000D01*
X91440000Y-38100000D02*
X91440000Y-15428000D01*
%TO.N,WAIT_n*%
X7620000Y-73025000D02*
X7620000Y-71120000D01*
X22372884Y-82456000D02*
X21590000Y-81673116D01*
X7620000Y-73025000D02*
X11430000Y-76835000D01*
X20955000Y-76835000D02*
X11430000Y-76835000D01*
X40640000Y-81280000D02*
X39464000Y-82456000D01*
X21590000Y-77470000D02*
X20955000Y-76835000D01*
X39464000Y-82456000D02*
X22372884Y-82456000D01*
X21590000Y-81673116D02*
X21590000Y-77470000D01*
%TO.N,DX9*%
X43447000Y-54877000D02*
X40640000Y-52070000D01*
X53340000Y-60960000D02*
X47257000Y-54877000D01*
X47257000Y-54877000D02*
X43447000Y-54877000D01*
%TO.N,DX8*%
X44266000Y-54426000D02*
X41910000Y-52070000D01*
X49346000Y-54426000D02*
X44266000Y-54426000D01*
X55880000Y-60960000D02*
X49346000Y-54426000D01*
%TO.N,DX6*%
X45720000Y-53340000D02*
X53340000Y-53340000D01*
X60960000Y-60960000D02*
X53340000Y-53340000D01*
X44450000Y-52070000D02*
X45720000Y-53340000D01*
%TO.N,C2_n*%
X10160000Y-71120000D02*
X10160000Y-67310000D01*
X30480000Y-63500000D02*
X29210000Y-64770000D01*
X29210000Y-64770000D02*
X12700000Y-64770000D01*
X12700000Y-64770000D02*
X10160000Y-67310000D01*
%TO.N,DX7*%
X51435000Y-53975000D02*
X45085000Y-53975000D01*
X58420000Y-60960000D02*
X51435000Y-53975000D01*
X45085000Y-53975000D02*
X43180000Y-52070000D01*
%TO.N,OE_n*%
X8890000Y-45720000D02*
X6350000Y-45720000D01*
X17780000Y-44530000D02*
X35560000Y-44530000D01*
X8890000Y-45720000D02*
X10080000Y-44530000D01*
X35560000Y-44530000D02*
X53340000Y-44530000D01*
X10080000Y-44530000D02*
X17780000Y-44530000D01*
%TO.N,Net-(SW1-C)*%
X76200000Y-83820000D02*
X73660000Y-81280000D01*
X73660000Y-81280000D02*
X73660000Y-73660000D01*
%TO.N,Net-(R6-Pad1)*%
X91440000Y-70540000D02*
X84940000Y-70540000D01*
X79955000Y-70540000D02*
X84940000Y-70540000D01*
X78740000Y-71755000D02*
X79955000Y-70540000D01*
X78740000Y-73660000D02*
X78740000Y-71755000D01*
%TO.N,HALT_SW*%
X40640000Y-27940000D02*
X40640000Y-24765000D01*
X82550000Y-24130000D02*
X41275000Y-24130000D01*
X41275000Y-24130000D02*
X40640000Y-24765000D01*
%TO.N,CONT_SW*%
X10795000Y-26670000D02*
X19050000Y-26670000D01*
X84940000Y-83240000D02*
X91440000Y-83240000D01*
X19050000Y-26670000D02*
X20320000Y-27940000D01*
%TD*%
M02*
