%TF.GenerationSoftware,KiCad,Pcbnew,9.0.6*%
%TF.CreationDate,2026-01-12T10:04:11+09:00*%
%TF.ProjectId,TangNano6100MEM,54616e67-4e61-46e6-9f36-3130304d454d,rev?*%
%TF.SameCoordinates,Original*%
%TF.FileFunction,Paste,Top*%
%TF.FilePolarity,Positive*%
%FSLAX46Y46*%
G04 Gerber Fmt 4.6, Leading zero omitted, Abs format (unit mm)*
G04 Created by KiCad (PCBNEW 9.0.6) date 2026-01-12 10:04:11*
%MOMM*%
%LPD*%
G01*
G04 APERTURE LIST*
%ADD10R,0.558800X1.981200*%
G04 APERTURE END LIST*
D10*
%TO.C,U3*%
X34290000Y-50165000D03*
X35560000Y-50165000D03*
X36830000Y-50165000D03*
X38100000Y-50165000D03*
X39370000Y-50165000D03*
X40640000Y-50165000D03*
X41910000Y-50165000D03*
X43180000Y-50165000D03*
X44450000Y-50165000D03*
X45720000Y-50165000D03*
X45720000Y-40792400D03*
X44450000Y-40792400D03*
X43180000Y-40792400D03*
X41910000Y-40792400D03*
X40640000Y-40792400D03*
X39370000Y-40792400D03*
X38100000Y-40792400D03*
X36830000Y-40792400D03*
X35560000Y-40792400D03*
X34290000Y-40792400D03*
%TD*%
%TO.C,U4*%
X52070000Y-50165000D03*
X53340000Y-50165000D03*
X54610000Y-50165000D03*
X55880000Y-50165000D03*
X57150000Y-50165000D03*
X58420000Y-50165000D03*
X59690000Y-50165000D03*
X60960000Y-50165000D03*
X62230000Y-50165000D03*
X63500000Y-50165000D03*
X63500000Y-40792400D03*
X62230000Y-40792400D03*
X60960000Y-40792400D03*
X59690000Y-40792400D03*
X58420000Y-40792400D03*
X57150000Y-40792400D03*
X55880000Y-40792400D03*
X54610000Y-40792400D03*
X53340000Y-40792400D03*
X52070000Y-40792400D03*
%TD*%
%TO.C,U2*%
X16510000Y-50165000D03*
X17780000Y-50165000D03*
X19050000Y-50165000D03*
X20320000Y-50165000D03*
X21590000Y-50165000D03*
X22860000Y-50165000D03*
X24130000Y-50165000D03*
X25400000Y-50165000D03*
X26670000Y-50165000D03*
X27940000Y-50165000D03*
X27940000Y-40792400D03*
X26670000Y-40792400D03*
X25400000Y-40792400D03*
X24130000Y-40792400D03*
X22860000Y-40792400D03*
X21590000Y-40792400D03*
X20320000Y-40792400D03*
X19050000Y-40792400D03*
X17780000Y-40792400D03*
X16510000Y-40792400D03*
%TD*%
M02*
